<svg width="340" height="382" viewBox="0 0 340 382" fill="none" xmlns="http://www.w3.org/2000/svg">
<ellipse cx="153.775" cy="366.908" rx="84.1665" ry="14.3262" fill="#BFCDFF"/>
<path d="M292.09 369.289C251.659 328.552 240.633 317.526 240.633 317.526L174.473 327.021L219.805 369.289C219.805 369.289 293.169 370.376 292.09 369.289Z" fill="#BFCDFF" stroke="#002BCF" stroke-width="3"/>
<path d="M182.437 331.309L231.137 324.264" stroke="#002BCF" stroke-width="5" stroke-linejoin="round" stroke-dasharray="10 10"/>
<path d="M184.581 338.047L240.326 329.471" stroke="#002BCF" stroke-width="5" stroke-linejoin="round" stroke-dasharray="7 7"/>
<path d="M187.031 345.398L250.128 336.822" stroke="#002BCF" stroke-width="5" stroke-linejoin="round" stroke-dasharray="15 15"/>
<path d="M189.481 350.912L252.578 342.336" stroke="#002BCF" stroke-width="5" stroke-linejoin="round" stroke-dasharray="10 10"/>
<path d="M283.898 363.163H183.355V369.289H289.333L283.898 363.163Z" fill="#002BCF" stroke="#002BCF" stroke-width="3" stroke-linejoin="round"/>
<path d="M217.66 356.425C213.74 356.18 236.242 353.668 247.983 352.443" stroke="#002BCF" stroke-width="10" stroke-linejoin="round"/>
<path d="M240.02 265.149L172.635 281.383L179.067 326.102L240.02 316.913V265.149Z" fill="#BFCDFF" stroke="#002BCF" stroke-width="3"/>
<path d="M232.975 271.888L174.779 285.059L176.311 322.12L234.507 314.769L232.975 271.888Z" fill="#CE654E" stroke="#002BCF" stroke-width="3"/>
<path d="M128.169 339.117L139.195 277.552L148.078 268.057L139.195 369.44H83.1433C83.1433 369.44 80.0897 356.151 83.1433 348.612C89.8898 331.957 128.169 339.117 128.169 339.117Z" fill="#BFCDFF" stroke="#002BCF" stroke-width="6"/>
<path d="M181.205 338.401L170.178 276.836L161.296 267.341L170.178 368.724H226.23C226.23 368.724 229.284 355.435 226.23 347.896C219.484 331.24 181.205 338.401 181.205 338.401Z" fill="#BFCDFF" stroke="#002BCF" stroke-width="6"/>
<path d="M177.083 339.844L183.208 339.231L181.677 345.969" stroke="#002BCF" stroke-width="5" stroke-linecap="round" stroke-linejoin="round"/>
<path d="M125.9 345.357L125.287 339.231L132.026 340.762" stroke="#002BCF" stroke-width="5" stroke-linecap="round" stroke-linejoin="round"/>
<path d="M54.1946 109.368C56.3386 134.484 103.597 196.568 68.8016 157.028C41.8482 126.398 6.93078 157.028 2.03031 185.207C-3.6275 217.741 11.7996 225.599 29.9024 229.007C92.3865 240.768 45.0645 229.699 92.3862 240.768C128.529 249.222 54.2278 237.787 51.7443 264.046C49.9151 283.387 64.1956 294.684 81.1485 304.171C114.08 322.599 124.079 259.157 160.172 270.172C196.706 281.322 169.055 292.41 219.287 321.017C231.975 328.243 247.262 327.129 251.142 313.053C259.619 282.299 203.666 294.888 203.666 255.164C203.666 233.295 216.702 268.156 231.233 264.046C244.083 260.412 248.029 254.071 246.854 240.768C245.536 225.853 236.038 225.638 219.287 214.121C195.523 197.782 268.574 245.743 284.433 221.656C294.299 206.67 301.764 190.763 292.798 175.221C277.256 148.283 256.254 167.748 213.161 175.221C195.483 178.287 246.854 147.411 251.142 133.443C255.019 120.815 239.101 105.647 219.287 109.368C195.921 113.756 176.976 126.489 169.055 138.466C152.726 163.154 183.967 103.732 169.055 84.436C160.79 73.741 142.837 77.692 137.411 90.0714C127.609 112.431 131.59 119.904 124.24 138.466C116.89 157.028 118.823 99.8728 84.824 90.0714C70.9625 86.0753 52.5867 90.5328 54.1946 109.368Z" fill="#002BCF"/>
<path d="M172.874 186.083L161.235 192.209" stroke="#BFCDFF" stroke-width="6" stroke-linecap="round"/>
<path d="M131.286 186.712C137.563 188.758 139.182 191.952 147.358 191.952" stroke="#BFCDFF" stroke-width="6" stroke-linecap="round"/>
<path d="M136.118 197.722L143.776 202.623L137.65 203.848L139.181 206.299" stroke="#BFCDFF" stroke-width="6" stroke-linecap="round"/>
<path d="M172.567 197.722L164.91 202.623L171.036 203.848L169.504 206.299" stroke="#BFCDFF" stroke-width="6" stroke-linecap="round"/>
<path d="M143.346 228.482C143.346 228.482 147.631 222.943 151.456 220.905C156.299 218.324 165.339 218.727 165.339 218.727" stroke="#BFCDFF" stroke-width="6" stroke-linecap="round"/>
<path d="M101.574 294.554C93.6103 291.491 105.556 263.618 105.556 263.618C105.556 263.618 116.582 260.862 118.114 261.78C119.646 262.699 121.483 271.582 121.483 271.582L169.877 256.573C169.877 256.573 174.881 257.447 177.841 258.718C184.688 261.656 190.093 264.537 191.012 271.276C191.931 278.014 183.661 274.645 183.661 274.645L169.877 267.294C169.877 267.294 109.538 297.617 101.574 294.554Z" fill="#BFCDFF" stroke="#002BCF" stroke-width="6" stroke-linecap="round"/>
<path d="M183.967 288.428C177.841 285.671 156.401 275.564 156.401 275.564C156.401 275.564 165.283 267.6 168.959 266.988C172.634 266.375 174.472 270.357 182.742 274.032C191.012 277.708 191.318 275.257 191.318 271.888C191.318 271.888 188.562 257.186 188.562 254.736C188.562 252.285 201.12 249.835 203.264 251.979C205.408 254.123 208.471 265.762 209.083 273.42C209.696 281.077 209.395 287.222 203.264 291.185C196.87 295.316 190.093 291.185 183.967 288.428Z" fill="#BFCDFF" stroke="#002BCF" stroke-width="6" stroke-linecap="round"/>
<path d="M121.711 264.029C121.711 264.029 124.883 262.038 127.13 262.088C131.096 262.176 135.26 267.132 136.034 268.687C136.808 270.242 134.489 276.063 131.777 276.063C129.073 276.063 129.068 274.905 129.835 272.203C128.905 274.537 127.09 277.942 124.81 277.615C123.242 277.391 123.348 275.296 123.797 273.374C122.692 275.73 121.159 278.179 119.779 278.006C116.322 277.572 118.133 273.258 121.711 269.075C124.036 266.358 117.061 274.083 117.067 276.063C117.069 276.839 114.802 274.354 114.747 272.957C114.582 268.748 121.711 264.029 121.711 264.029Z" fill="#BFCDFF" stroke="#002BCF" stroke-width="3"/>
<path d="M195.607 100.218L187.619 121.308C187.619 121.308 207.866 115.095 215.588 115.552C223.31 116.009 230.896 125.307 246.368 128.348C261.839 131.39 315.016 128.348 329.142 92.5C341.127 62.082 337.888 45.0223 317.497 21.8574C282.096 -18.3609 190.043 20.0541 190.443 73.632C190.522 84.2082 195.607 100.218 195.607 100.218Z" fill="#BFCDFF" stroke="#002BCF" stroke-width="5" stroke-linecap="round" stroke-linejoin="round"/>
<path d="M230.142 68.4922C230.335 68.415 230.519 68.4448 230.695 68.5815C230.885 68.7123 231.042 68.9338 231.167 69.2458C231.398 69.8253 231.441 70.3423 231.295 70.7968C230.542 73.1823 229.334 74.7074 227.67 75.3722C226.229 75.9479 224.855 75.8507 223.548 75.0806C222.241 74.3105 221.172 72.8854 220.341 70.8052C220.139 70.3001 219.959 69.786 219.802 69.263C218.893 69.833 217.876 70.3941 216.753 70.9462C216.004 71.3143 215.491 71.5622 215.215 71.6898C215.523 73.3241 215.849 75.3476 216.193 77.7603C216.397 79.1776 216.061 80.0613 215.184 80.4115C214.234 80.7914 213.586 80.5505 213.242 79.6887C213.165 79.4955 213.095 79.2132 213.033 78.8418C212.725 76.6044 212.437 74.7206 212.171 73.1904L211.119 73.6623C210.628 73.8582 210.239 73.9189 209.951 73.8445C209.657 73.7552 209.432 73.5174 209.278 73.1311C209.082 72.6408 209.081 72.2278 209.274 71.8922C209.462 71.5416 209.876 71.221 210.518 70.9301L211.682 70.4136C211.231 68.1643 210.786 66.4898 210.347 65.3903C210.068 64.692 209.774 64.2581 209.465 64.0886C209.156 63.9191 208.831 63.9026 208.489 64.0391C207.449 64.4546 206.622 65.7927 206.009 68.0535C205.917 68.3832 205.752 68.5956 205.514 68.6906C205.306 68.7737 205.089 68.7483 204.864 68.6145C204.638 68.4807 204.466 68.2652 204.347 67.9681C204.163 67.5075 204.153 66.9429 204.316 66.2745C204.608 65.107 205.136 64.0346 205.9 63.0575C206.658 62.0655 207.55 61.3647 208.575 60.9551C209.541 60.5693 210.417 60.6068 211.204 61.0677C212 61.5078 212.677 62.4262 213.235 63.8229C213.728 65.0561 214.218 66.7989 214.704 69.0512L216.843 68.0673C217.762 67.6487 218.534 67.2539 219.161 66.8828C218.776 65.1416 218.573 63.4479 218.553 61.8019C218.533 60.1559 218.754 58.7239 219.215 57.506C219.676 56.288 220.411 55.4772 221.422 55.0736C222.165 54.7768 222.87 54.8395 223.539 55.2617C224.201 55.6691 224.722 56.3482 225.102 57.2991C226.574 60.984 225.715 64.2905 222.526 67.2186C222.719 67.8307 222.943 68.4562 223.198 69.0951C223.821 70.6553 224.457 71.685 225.104 72.1845C225.752 72.6839 226.425 72.7942 227.123 72.5152C227.732 72.2718 228.227 71.8932 228.608 71.3794C228.982 70.8507 229.335 70.0724 229.665 69.0446C229.76 68.7653 229.919 68.5812 230.142 68.4922ZM222.085 57.0571C221.758 57.1877 221.528 57.6244 221.394 58.3671C221.274 59.1039 221.256 60.0502 221.339 61.206C221.422 62.3618 221.61 63.5875 221.903 64.883C222.896 63.9178 223.494 62.8693 223.696 61.7374C223.899 60.6055 223.715 59.3263 223.145 57.8999C223.009 57.5582 222.842 57.3145 222.646 57.1688C222.45 57.0231 222.263 56.9859 222.085 57.0571ZM241.797 63.8363C241.99 63.7591 242.174 63.7889 242.349 63.9257C242.539 64.0565 242.697 64.2779 242.821 64.59C243.059 65.1843 243.102 65.7013 242.95 66.1409C242.667 67.0292 242.134 67.9574 241.349 68.9256C240.579 69.8879 239.622 70.5976 238.478 71.0547C236.918 71.6779 235.538 71.7382 234.337 71.2355C233.137 70.7329 232.243 69.7461 231.656 68.2751C231.246 67.2499 231.082 66.2129 231.162 65.1641C231.237 64.1005 231.55 63.1573 232.1 62.3345C232.665 61.5058 233.43 60.8986 234.396 60.5128C235.257 60.1685 236.052 60.1525 236.78 60.4648C237.502 60.7622 238.038 61.3493 238.388 62.2259C238.798 63.2511 238.779 64.2836 238.333 65.3233C237.896 66.3422 236.887 67.4173 235.306 68.5486C235.95 69.0837 236.792 69.1435 237.833 68.728C238.501 68.4609 239.167 67.9279 239.83 67.1289C240.502 66.3092 240.998 65.3958 241.32 64.3887C241.415 64.1095 241.574 63.9253 241.797 63.8363ZM234.889 62.8483C234.34 63.0679 233.999 63.5743 233.868 64.3676C233.752 65.1549 233.875 66.0017 234.237 66.908L234.255 66.9526C235.048 66.3944 235.614 65.8064 235.953 65.1885C236.292 64.5707 236.352 63.9869 236.132 63.4371C236.02 63.1548 235.849 62.9646 235.62 62.8664C235.4 62.7475 235.157 62.7414 234.889 62.8483ZM244.218 68.7613C243.654 68.9869 243.134 68.85 242.659 68.3506C242.199 67.8453 241.707 66.9389 241.185 65.6314C240.413 63.6998 239.955 61.755 239.81 59.797C239.772 59.3127 239.863 58.9146 240.083 58.6027C240.312 58.27 240.701 57.9939 241.251 57.7743C241.548 57.6556 241.771 57.6096 241.919 57.6364C242.068 57.6632 242.184 57.7806 242.267 57.9886C242.362 58.2264 242.464 58.8058 242.574 59.7269C242.662 60.3806 242.751 60.9481 242.84 61.4295C242.923 61.896 243.066 62.468 243.267 63.1455C243.205 61.8263 243.289 60.6557 243.518 59.6337C243.763 58.6058 244.097 57.783 244.522 57.1652C244.956 56.5266 245.433 56.1034 245.953 55.8957C246.474 55.6879 246.885 55.6614 247.188 55.816C247.506 55.9647 247.763 56.2842 247.959 56.7745C248.149 57.25 248.352 58.1682 248.568 59.529C248.663 60.1114 248.741 60.5452 248.804 60.8305C248.816 58.7061 249.11 57.0469 249.684 55.8528C250.258 54.6586 250.938 53.9043 251.726 53.5897C252.692 53.2039 253.367 53.4939 253.753 54.4596C253.985 55.0391 254.24 56.1519 254.518 57.7981C254.752 59.2035 254.953 60.1142 255.119 60.5303C255.356 61.1246 255.69 61.3357 256.121 61.1636C256.418 61.0449 256.696 60.7271 256.955 60.2102C257.223 59.6726 257.535 58.8586 257.892 57.7684C257.987 57.4891 258.146 57.305 258.369 57.216C258.562 57.1388 258.747 57.1686 258.922 57.3053C259.112 57.4361 259.269 57.6576 259.394 57.9696C259.631 58.5639 259.674 59.0809 259.522 59.5206C259.198 60.5633 258.765 61.4856 258.224 62.2876C257.698 63.0836 256.967 63.6686 256.031 64.0426C255.273 64.3453 254.615 64.3583 254.057 64.0818C253.492 63.7904 253.044 63.2286 252.711 62.3965C252.545 61.9805 252.352 61.196 252.133 60.0432C251.952 59.0299 251.791 58.345 251.648 57.9884C251.553 57.7507 251.424 57.6644 251.261 57.7297C251.067 57.8069 250.893 58.1693 250.739 58.8169C250.578 59.4497 250.482 60.2459 250.452 61.2056C250.422 62.1653 250.477 63.1428 250.616 64.1382C250.737 64.9167 250.734 65.4693 250.606 65.7961C250.493 66.1169 250.199 66.3723 249.723 66.5622C249.233 66.7581 248.77 66.6762 248.333 66.3165C247.905 65.936 247.558 65.4114 247.291 64.7428C247.065 64.1782 246.813 63.3313 246.534 62.2021C246.273 61.2037 246.084 60.5559 245.965 60.2588C245.87 60.021 245.741 59.9348 245.577 60.0001C245.354 60.0891 245.179 60.4694 245.051 61.1408C244.923 61.8122 244.862 62.6292 244.867 63.5919C244.887 64.5486 244.961 65.4667 245.089 66.3462C245.204 67.1098 245.201 67.6625 245.079 68.0041C244.966 68.3249 244.679 68.5773 244.218 68.7613ZM223.21 98.6905C221.754 99.2722 220.454 99.3177 219.311 98.8269C218.176 98.3154 217.338 97.3836 216.798 96.0315C216.317 94.828 216.134 93.678 216.247 92.5817C216.361 91.4855 216.698 90.5408 217.26 89.7477C217.822 88.9547 218.519 88.392 219.351 88.0596C220.168 87.7331 220.898 87.726 221.539 88.0383C222.19 88.3298 222.666 88.8544 222.969 89.6122C223.218 90.2362 223.288 90.8201 223.178 91.3637C223.082 91.9015 222.812 92.2594 222.366 92.4374C222.084 92.5502 221.827 92.5753 221.595 92.5128C221.378 92.4444 221.222 92.2913 221.127 92.0536C221.086 91.9496 221.053 91.8248 221.03 91.6792C221.006 91.5336 220.99 91.4281 220.981 91.3627C220.966 91.1102 220.92 90.8873 220.843 90.6942C220.766 90.501 220.654 90.3732 220.509 90.3107C220.378 90.2424 220.224 90.2438 220.045 90.315C219.703 90.4515 219.446 90.7351 219.274 91.1659C219.095 91.5818 219.021 92.0853 219.05 92.6766C219.08 93.2679 219.219 93.8755 219.468 94.4996C220.157 96.2231 221.252 96.7852 222.752 96.1857C223.361 95.9423 223.935 95.4806 224.473 94.8004C225.02 94.0995 225.472 93.2039 225.829 92.1136C225.924 91.8344 226.083 91.6503 226.306 91.5612C226.499 91.4841 226.684 91.5139 226.859 91.6506C227.049 91.7814 227.206 92.0028 227.331 92.3149C227.557 92.8795 227.599 93.3965 227.46 93.8658C227.105 95.0066 226.533 96.0106 225.742 96.8778C224.961 97.7242 224.117 98.3285 223.21 98.6905ZM235.747 85.6188C235.941 85.5416 236.128 85.5788 236.309 85.7304C236.49 85.8821 236.64 86.1064 236.759 86.4036C237.044 87.1168 236.997 87.6263 236.62 87.9322C235.853 88.6003 234.944 89.1704 233.892 89.6423C234.108 91.0032 233.951 92.2287 233.422 93.3189C232.887 94.3942 232.092 95.1426 231.037 95.564C230.145 95.9201 229.294 96.0104 228.483 95.8347C227.687 95.6531 226.983 95.271 226.371 94.6884C225.759 94.1058 225.287 93.3984 224.955 92.5664C224.504 91.4371 224.318 90.3481 224.399 89.2994C224.474 88.2357 224.792 87.3074 225.354 86.5144C225.91 85.7065 226.649 85.1185 227.57 84.7505C228.699 84.2994 229.763 84.3311 230.761 84.8455C231.768 85.3392 232.559 86.1343 233.135 87.2309C233.816 86.9074 234.588 86.4264 235.453 85.788C235.56 85.7108 235.658 85.6544 235.747 85.6188ZM230.271 93.1303C230.747 92.9404 231.078 92.584 231.266 92.0611C231.468 91.5324 231.483 90.8802 231.311 90.1047C230.726 89.9766 230.206 89.7105 229.752 89.3062C229.312 88.896 228.979 88.4086 228.754 87.844C228.659 87.6062 228.586 87.3596 228.536 87.1041L228.424 87.1486C227.83 87.386 227.448 87.8746 227.278 88.6143C227.118 89.3333 227.245 90.2128 227.66 91.2529C227.987 92.0701 228.392 92.6318 228.876 92.938C229.375 93.2383 229.84 93.3024 230.271 93.1303ZM245.124 84.0438C245.318 83.9666 245.502 83.9964 245.677 84.1332C245.867 84.264 246.024 84.4854 246.149 84.7974C246.387 85.3918 246.429 85.9087 246.278 86.3484C245.995 87.2366 245.461 88.1649 244.676 89.1331C243.906 90.0954 242.949 90.8051 241.805 91.2621C240.245 91.8854 238.865 91.9457 237.665 91.443C236.465 90.9403 235.571 89.9535 234.983 88.4825C234.574 87.4573 234.409 86.4203 234.49 85.3716C234.565 84.3079 234.877 83.3647 235.427 82.542C235.992 81.7133 236.758 81.106 237.723 80.7202C238.585 80.376 239.38 80.36 240.108 80.6723C240.83 80.9697 241.366 81.5567 241.716 82.4334C242.125 83.4586 242.107 84.4911 241.661 85.5308C241.224 86.5497 240.214 87.6248 238.633 88.756C239.278 89.2911 240.12 89.3509 241.16 88.9354C241.829 88.6683 242.495 88.1353 243.158 87.3364C243.829 86.5167 244.326 85.6033 244.647 84.5962C244.742 84.317 244.902 84.1328 245.124 84.0438ZM238.217 83.0558C237.667 83.2754 237.327 83.7818 237.196 84.575C237.079 85.3623 237.202 86.2091 237.564 87.1155L237.582 87.1601C238.376 86.6019 238.942 86.0138 239.281 85.396C239.62 84.7781 239.68 84.1943 239.46 83.6446C239.347 83.3623 239.177 83.1721 238.948 83.0739C238.728 82.955 238.484 82.9489 238.217 83.0558ZM255.254 80.0489C255.447 79.9718 255.634 80.009 255.815 80.1606C256.006 80.2914 256.157 80.498 256.27 80.7803C256.406 81.122 256.461 81.4102 256.434 81.645C256.407 81.8797 256.312 82.1158 256.149 82.3534C255.215 83.7257 254.534 84.7385 254.106 85.392L253.063 86.9202C253.727 90.2214 253.948 92.9326 253.727 95.0539C253.527 97.1841 252.722 98.5312 251.31 99.0951C250.552 99.3978 249.841 99.4064 249.175 99.1208C248.516 98.8502 248.035 98.3359 247.732 97.5782C247.311 96.5232 247.273 95.2204 247.618 93.6696C247.969 92.1337 248.936 90.0246 250.518 87.3424L250.304 86.4198C250.212 86.9219 250.002 87.3674 249.675 87.7565C249.357 88.1248 248.997 88.389 248.596 88.5493C247.675 88.9173 246.806 88.8768 245.989 88.4278C245.172 87.9788 244.547 87.212 244.114 86.1273C243.639 84.9387 243.466 83.707 243.594 82.4325C243.717 81.1431 244.103 79.9979 244.754 78.9969C245.414 77.9751 246.257 77.2595 247.282 76.8499C247.609 76.7193 247.851 76.7001 248.009 76.7923C248.175 76.8637 248.361 77.048 248.566 77.3452C248.824 77.173 249.139 77.0127 249.511 76.8643C249.882 76.7159 250.166 76.6715 250.362 76.731C250.567 76.7697 250.735 76.9525 250.865 77.2794C250.937 77.4577 250.986 77.6018 251.012 77.7117C251.137 78.1961 251.417 79.4366 251.853 81.4334C251.936 81.8138 252.026 82.2342 252.124 82.6948C252.231 83.1346 252.342 83.607 252.458 84.1122C253.246 82.7636 254.031 81.5369 254.813 80.432C254.958 80.236 255.105 80.1083 255.254 80.0489ZM248.499 85.9778C248.841 85.8412 249.085 85.5026 249.231 84.962C249.377 84.4213 249.362 83.7379 249.187 82.9119L248.378 78.8158C247.775 79.074 247.305 79.5373 246.969 80.2057C246.627 80.8592 246.448 81.6197 246.433 82.4872C246.418 83.3548 246.576 84.2046 246.909 85.0367C247.093 85.4973 247.318 85.8034 247.586 85.9551C247.868 86.1008 248.172 86.1083 248.499 85.9778ZM250.692 96.8352C251.063 96.6868 251.301 96.0749 251.406 94.9994C251.525 93.918 251.411 92.318 251.065 90.1994C250.312 91.6371 249.841 92.8506 249.65 93.8399C249.46 94.8292 249.483 95.621 249.72 96.2153C249.821 96.4679 249.949 96.6581 250.103 96.7859C250.273 96.9078 250.469 96.9243 250.692 96.8352ZM258.554 84.5715C257.885 84.8386 257.214 84.7536 256.539 84.3166C255.874 83.8587 255.357 83.1692 254.989 82.248C254.544 81.1336 254.212 80.0861 253.993 79.1056C253.767 78.1101 253.618 77.0241 253.544 75.8475C253.514 75.3424 253.595 74.9399 253.785 74.6399C253.975 74.3399 254.36 74.0741 254.94 73.8426C255.267 73.7121 255.51 73.675 255.671 73.7316C255.846 73.7821 255.975 73.9114 256.058 74.1195C256.106 74.2383 256.184 74.6721 256.294 75.4209C256.365 76.03 256.445 76.5753 256.534 77.0566C256.86 78.7355 257.127 79.8349 257.334 80.3549C257.459 80.667 257.585 80.875 257.713 80.979C257.835 81.0682 257.977 81.0802 258.141 81.0149C258.364 80.9259 258.55 80.5932 258.698 80.0168C258.862 79.4346 258.949 78.6161 258.958 77.5613C258.982 76.5006 258.908 75.2379 258.737 73.773C258.678 73.2798 258.728 72.8891 258.889 72.601C259.064 72.3069 259.397 72.062 259.887 71.8661C260.229 71.7296 260.485 71.6792 260.654 71.7149C260.818 71.7358 260.944 71.8577 261.033 72.0805C261.181 72.452 261.402 73.544 261.695 75.3565C262.039 77.4245 262.3 78.6815 262.478 79.1272C262.591 79.4095 262.739 79.6086 262.923 79.7246C263.102 79.8257 263.287 79.8377 263.48 79.7605C263.778 79.6418 264.056 79.324 264.314 78.8071C264.582 78.2695 264.894 77.4555 265.251 76.3653C265.347 76.0861 265.506 75.9019 265.728 75.8129C265.922 75.7357 266.106 75.7655 266.281 75.9023C266.471 76.0331 266.628 76.2545 266.753 76.5665C266.991 77.1609 267.033 77.6778 266.882 78.1175C266.557 79.1602 266.125 80.0826 265.584 80.8845C265.057 81.6806 264.326 82.2655 263.39 82.6395C262.677 82.9244 262.04 82.8602 261.478 82.447C260.932 82.0278 260.46 81.3205 260.062 80.325C260.213 81.4362 260.146 82.3677 259.86 83.1192C259.569 83.8559 259.133 84.34 258.554 84.5715ZM276.313 71.5845C276.506 71.5074 276.69 71.5372 276.866 71.6739C277.056 71.8047 277.213 72.0262 277.338 72.3382C277.575 72.9325 277.618 73.4495 277.466 73.8892C277.097 74.9497 276.65 75.878 276.124 76.674C275.612 77.4641 274.896 78.0431 273.975 78.4111C273.202 78.7198 272.565 78.6987 272.063 78.3479C271.561 77.9971 271.12 77.3462 270.74 76.3953C270.58 75.9941 270.424 75.4964 270.273 74.9021C268.965 75.4244 268.053 75.7716 267.536 75.9437C267.672 76.3716 267.773 76.6673 267.839 76.8307L268.026 77.2988C268.379 78.2259 268.615 78.8811 268.733 79.2645C268.852 79.6478 268.873 79.9583 268.795 80.1959C268.712 80.4187 268.499 80.5984 268.158 80.7349C267.593 80.9605 267.073 80.8236 266.598 80.3242C266.138 79.8189 265.646 78.9125 265.124 77.605C264.352 75.6734 263.894 73.7286 263.75 71.7705C263.711 71.2862 263.802 70.8881 264.022 70.5763C264.236 70.2495 264.625 69.9734 265.19 69.7479C265.487 69.6291 265.71 69.5832 265.859 69.61C266.007 69.6368 266.123 69.7542 266.206 69.9622C266.301 70.2 266.403 70.7794 266.513 71.7005C266.59 72.2383 266.716 72.8771 266.891 73.617L269.743 72.4774C269.613 71.7197 269.472 70.7421 269.321 69.5447C269.262 69.0515 269.313 68.6608 269.473 68.3727C269.649 68.0786 269.982 67.8336 270.472 67.6378C270.814 67.5012 271.069 67.4508 271.239 67.4866C271.402 67.5074 271.528 67.6293 271.617 67.8522C271.766 68.2236 271.987 69.3156 272.28 71.1282C272.624 73.1962 272.885 74.4531 273.063 74.8989C273.175 75.1812 273.324 75.3803 273.508 75.4963C273.686 75.5974 273.872 75.6093 274.065 75.5322C274.362 75.4134 274.64 75.0957 274.899 74.5788C275.167 74.0411 275.479 73.2272 275.836 72.137C275.931 71.8577 276.09 71.6736 276.313 71.5845ZM285.063 68.089C285.256 68.0118 285.441 68.0416 285.616 68.1784C285.806 68.3092 285.963 68.5306 286.088 68.8426C286.325 69.437 286.368 69.954 286.217 70.3936C285.934 71.2819 285.4 72.2101 284.615 73.1783C283.845 74.1406 282.888 74.8503 281.744 75.3073C280.184 75.9306 278.804 75.9909 277.604 75.4882C276.404 74.9855 275.51 73.9987 274.922 72.5278C274.513 71.5025 274.348 70.4655 274.429 69.4168C274.504 68.3531 274.816 67.4099 275.366 66.5872C275.931 65.7585 276.696 65.1513 277.662 64.7654C278.524 64.4212 279.319 64.4052 280.047 64.7175C280.768 65.0149 281.304 65.602 281.655 66.4786C282.064 67.5038 282.046 68.5363 281.6 69.576C281.163 70.5949 280.153 71.67 278.572 72.8013C279.217 73.3363 280.059 73.3961 281.099 72.9807C281.768 72.7136 282.434 72.1805 283.096 71.3816C283.768 70.5619 284.265 69.6485 284.586 68.6414C284.681 68.3622 284.84 68.178 285.063 68.089ZM278.156 67.101C277.606 67.3206 277.266 67.827 277.135 68.6202C277.018 69.4075 277.141 70.2544 277.503 71.1607L277.521 71.2053C278.315 70.6471 278.881 70.059 279.22 69.4412C279.559 68.8234 279.619 68.2396 279.399 67.6898C279.286 67.4075 279.116 67.2173 278.887 67.1191C278.667 67.0002 278.423 66.9941 278.156 67.101ZM295.64 63.8636C295.834 63.7865 296.018 63.8163 296.193 63.953C296.383 64.0838 296.54 64.3053 296.665 64.6173C296.903 65.2116 296.945 65.7286 296.794 66.1683C296.425 67.2288 295.977 68.1571 295.451 68.9531C294.94 69.7432 294.223 70.3222 293.302 70.6902C292.529 70.9989 291.892 70.9778 291.39 70.627C290.888 70.2762 290.447 69.6253 290.067 68.6744C289.907 68.2732 289.751 67.7755 289.6 67.1812C288.293 67.7035 287.38 68.0507 286.863 68.2228C287 68.6507 287.101 68.9464 287.166 69.1098L287.353 69.5779C287.706 70.505 287.942 71.1602 288.061 71.5436C288.179 71.9269 288.2 72.2374 288.123 72.475C288.039 72.6978 287.827 72.8775 287.485 73.014C286.92 73.2396 286.401 73.1027 285.925 72.6033C285.465 72.098 284.974 71.1916 284.451 69.8841C283.68 67.9525 283.222 66.0077 283.077 64.0496C283.039 63.5653 283.129 63.1672 283.349 62.8554C283.563 62.5286 283.953 62.2525 284.517 62.027C284.815 61.9082 285.037 61.8623 285.186 61.8891C285.334 61.9159 285.45 62.0333 285.533 62.2413C285.628 62.4791 285.731 63.0585 285.84 63.9796C285.917 64.5174 286.043 65.1562 286.218 65.8961L289.071 64.7565C288.94 63.9988 288.8 63.0212 288.649 61.8238C288.59 61.3306 288.64 60.9399 288.801 60.6518C288.976 60.3577 289.309 60.1127 289.799 59.9169C290.141 59.7803 290.397 59.7299 290.566 59.7657C290.73 59.7865 290.856 59.9084 290.945 60.1313C291.093 60.5027 291.314 61.5947 291.607 63.4073C291.951 65.4753 292.212 66.7322 292.39 67.178C292.503 67.4603 292.651 67.6594 292.835 67.7754C293.014 67.8765 293.199 67.8884 293.393 67.8113C293.69 67.6925 293.968 67.3748 294.226 66.8579C294.494 66.3202 294.806 65.5063 295.163 64.4161C295.259 64.1368 295.418 63.9527 295.64 63.8636ZM298.754 68.5124C298.085 68.7795 297.414 68.6945 296.739 68.2575C296.074 67.7996 295.557 67.1101 295.189 66.1889C294.744 65.0745 294.412 64.027 294.193 63.0464C293.967 62.051 293.818 60.965 293.744 59.7884C293.714 59.2833 293.795 58.8807 293.985 58.5807C294.175 58.2808 294.56 58.015 295.14 57.7835C295.467 57.6529 295.71 57.6159 295.871 57.6724C296.046 57.723 296.175 57.8523 296.258 58.0603C296.306 58.1792 296.384 58.613 296.494 59.3618C296.565 59.9709 296.645 60.5161 296.734 60.9975C297.06 62.6763 297.327 63.7758 297.535 64.2958C297.659 64.6078 297.785 64.8159 297.913 64.9199C298.035 65.0091 298.177 65.0211 298.341 64.9558C298.564 64.8667 298.75 64.5341 298.898 63.9577C299.062 63.3755 299.149 62.5569 299.158 61.5022C299.182 60.4415 299.109 59.1788 298.937 57.7139C298.878 57.2207 298.928 56.83 299.089 56.5419C299.264 56.2478 299.597 56.0028 300.088 55.807C300.429 55.6705 300.685 55.6201 300.854 55.6558C301.018 55.6767 301.144 55.7985 301.233 56.0214C301.381 56.3929 301.602 57.4848 301.895 59.2974C302.239 61.3654 302.5 62.6223 302.678 63.0681C302.791 63.3504 302.939 63.5495 303.124 63.6655C303.302 63.7666 303.487 63.7785 303.681 63.7014C303.978 63.5827 304.256 63.2649 304.514 62.748C304.782 62.2104 305.094 61.3964 305.451 60.3062C305.547 60.0269 305.706 59.8428 305.929 59.7538C306.122 59.6766 306.306 59.7064 306.481 59.8431C306.671 59.974 306.829 60.1954 306.953 60.5074C307.191 61.1017 307.234 61.6187 307.082 62.0584C306.757 63.1011 306.325 64.0234 305.784 64.8254C305.257 65.6214 304.526 66.2064 303.59 66.5804C302.877 66.8653 302.24 66.8011 301.678 66.3879C301.132 65.9687 300.66 65.2613 300.262 64.2658C300.413 65.3771 300.346 66.3085 300.06 67.0601C299.769 67.7968 299.333 68.2809 298.754 68.5124ZM318.029 54.92C318.222 54.8428 318.406 54.8726 318.581 55.0094C318.771 55.1402 318.929 55.3616 319.053 55.6736C319.291 56.268 319.334 56.785 319.182 57.2246C318.771 58.4396 318.299 59.4125 317.763 60.1431C317.228 60.8738 316.612 61.3786 315.913 61.6576C315.304 61.9009 314.75 61.8724 314.251 61.5721C313.752 61.2718 313.342 60.7205 313.022 59.9181C312.849 59.4873 312.707 59.0014 312.594 58.4606L312.55 58.4784C312.207 61.6306 310.965 63.6341 308.826 64.4888C307.905 64.8568 307.047 64.8891 306.254 64.5857C305.476 64.2764 304.912 63.6834 304.562 62.8067C304.253 62.0341 304.18 61.3567 304.344 60.7744C304.523 60.1862 304.916 59.7704 305.526 59.5271C306.061 59.3134 306.414 59.422 306.586 59.8529C306.61 59.9123 306.637 60.0222 306.666 60.1827C306.731 60.4323 306.788 60.6165 306.835 60.7354C307.025 61.2109 307.287 61.5631 307.619 61.792C307.952 62.0209 308.297 62.0642 308.653 61.9217C309.114 61.7377 309.525 61.4096 309.888 60.9373C310.245 60.4502 310.547 59.8472 310.794 59.1283L310.504 59.2441C309.612 59.6002 308.786 59.6028 308.026 59.2519C307.28 58.895 306.718 58.2411 306.338 57.2902C305.899 56.1906 305.88 55.2161 306.281 54.3665C306.677 53.5021 307.446 52.8414 308.591 52.3844C309.393 52.0638 310.268 51.8607 311.216 51.775C311.29 51.4868 311.587 51.2388 312.108 51.0311C312.405 50.9124 312.665 50.8947 312.887 50.978C313.119 51.0405 313.268 51.1965 313.333 51.4461C313.452 51.8295 313.582 52.5441 313.724 53.59C313.881 54.6299 314.037 55.5154 314.191 56.2464C314.345 56.9773 314.541 57.64 314.778 58.2343C314.891 58.5166 315.032 58.7187 315.201 58.8406C315.38 58.9417 315.573 58.9507 315.781 58.8676C316.063 58.7548 316.337 58.4474 316.601 57.9454C316.866 57.4434 317.183 56.6191 317.552 55.4724C317.632 55.1991 317.791 55.015 318.029 54.92ZM311.289 56.9403C311.444 55.8619 311.471 54.7655 311.371 53.6513C310.771 53.7015 310.263 53.8098 309.847 53.976C309.252 54.2134 308.848 54.5385 308.634 54.9514C308.42 55.3643 308.417 55.8308 308.624 56.3508C308.791 56.7669 309.064 57.0626 309.444 57.2381C309.839 57.4076 310.245 57.4093 310.661 57.2431C310.854 57.1659 311.063 57.065 311.289 56.9403Z" fill="#F54925"/>
<path d="M138.824 114.454L138.817 114.437L138.81 114.42C138.007 112.536 136.72 110.898 135.08 109.673C133.439 108.447 131.504 107.678 129.47 107.443L129.379 107.432L129.288 107.427L110.802 106.424C108.226 106.067 105.6 106.388 103.185 107.357C100.761 108.331 98.6356 109.922 97.0203 111.973L84.442 125.88L84.4234 125.901L84.4052 125.922C84.3485 125.987 84.2515 126.099 84.1489 126.234C82.9039 127.84 82.1098 129.749 81.8487 131.765C81.5867 133.787 81.8706 135.842 82.6708 137.717C83.4711 139.593 84.7586 141.219 86.3997 142.429C88.0408 143.639 89.9758 144.388 92.0038 144.597L92.0771 144.605L92.1507 144.609L95.4514 144.787L96.6499 147.7L98.9949 153.399L98.9955 153.401C100.168 156.245 102.218 158.64 104.848 160.237C107.477 161.833 110.548 162.548 113.613 162.275L113.646 162.272L113.679 162.269C117.395 161.856 121.031 160.903 124.473 159.442C127.945 158.055 131.197 156.169 134.126 153.845L134.151 153.825L134.176 153.805C136.544 151.842 138.224 149.173 138.968 146.188C139.194 145.282 139.331 144.361 139.378 143.438C139.954 144.429 140.841 145.211 141.911 145.657C143.204 146.197 144.658 146.2 145.954 145.667C147.25 145.134 148.28 144.108 148.82 142.815C149.359 141.522 149.362 140.067 148.829 138.772L138.824 114.454Z" fill="#BFCDFF" stroke="#002BCF" stroke-width="6"/>
</svg>
