<svg width="761" height="732" viewBox="0 0 761 732" fill="none" xmlns="http://www.w3.org/2000/svg">
<path fill-rule="evenodd" clip-rule="evenodd" d="M526.352 123.766C603.088 152.787 626.869 246.9 650.169 325.562C669.529 390.921 673.023 460.34 644.366 522.19C617.709 579.723 563.507 617.056 504.433 640.101C449.161 661.662 386.178 670.369 333.255 643.554C284.228 618.712 279.606 554.749 247.684 510.008C199.833 442.941 89.9451 402.472 103.238 321.165C116.345 240.988 225.895 227.296 299.518 192.948C373.99 158.205 449.488 94.6967 526.352 123.766Z" fill="#181818"/>
<path fill-rule="evenodd" clip-rule="evenodd" d="M502.352 117.244C579.088 146.265 602.869 240.378 626.169 319.04C645.529 384.398 649.023 453.818 620.366 515.667C593.709 573.201 539.507 610.534 480.433 633.578C425.161 655.14 362.178 663.847 309.255 637.031C260.228 612.189 255.606 548.226 223.684 503.485C175.833 436.419 65.9451 395.949 79.2376 314.642C92.3453 234.465 201.895 220.774 275.518 186.426C349.99 151.682 425.488 88.1741 502.352 117.244Z" fill="#002BCF"/>
<path d="M408.78 118.153C377.807 107.48 288.036 97.4143 234.576 153.639C181.117 209.864 338.27 193.273 320.297 224.611C302.626 255.421 174.204 190.047 116.597 246.271C58.8429 302.64 170.978 313.557 220.29 373.008C269.601 432.458 198.227 477.796 174.204 487.761C111.988 513.569 105.062 544.272 140.562 568.411C186.647 599.75 269.601 599.75 269.601 599.75" stroke="#F54925" stroke-width="3" stroke-linecap="round" stroke-dasharray="12 12"/>
<path d="M611.098 490.066C611.098 490.066 607.872 445.823 666.862 440.754C710.075 437.04 665.951 376.115 666.862 333.374C667.987 280.639 683.914 239.819 660.871 202.029C642.171 171.361 591.938 164.076 557.178 155.022" stroke="#F54925" stroke-width="3" stroke-linecap="round" stroke-dasharray="12 12"/>
<path d="M165.506 332.437C218.074 416.962 254.223 446.19 314.016 511.726C328.54 527.646 374.74 548.494 417.003 522.209C459.265 495.925 507.564 460.259 534.907 430.254C562.249 400.249 548.06 390.617 539.445 335.91C536.823 319.26 547.825 317.158 575.948 250.02C592.979 209.362 525.611 211.161 502.187 236.773C478.764 262.386 472.477 284.649 471.753 303.908C470.769 330.118 414.013 185.359 353.895 152.792C332.563 141.236 294.955 169.493 303.246 192.294C317.243 230.786 338.24 255.139 367.058 292.088C371.483 297.762 366.085 301.7 360.415 297.268C327.919 271.868 304.483 218.705 278.231 200.454C255.946 184.962 214.058 209.775 223.43 243.194C232.802 276.613 276.224 322.869 295.651 347.779C300.507 354.006 295.854 356.968 290.669 351.664C251.042 311.128 200.713 244.885 168.331 270.14C146.743 286.977 150.412 308.168 165.506 332.437Z" fill="white" stroke="#002BCF" stroke-width="6"/>
<path d="M346.501 564.51C322.453 548.798 338.649 532.17 359.622 534.245C374.816 535.749 400.344 534.003 415.989 524.337C444.824 506.519 492.294 471.502 492.294 471.502C492.294 471.502 528.412 443.332 540.12 427.524C551.827 411.716 553.388 405.157 550.691 390.569C547.993 375.981 578.922 368.552 584.863 387.288C587.96 397.052 590.639 405.834 581.999 425.575C552.239 493.573 460.113 551.006 403.118 567.759C379.762 574.624 364.203 576.075 346.501 564.51Z" fill="white" stroke="#002BCF" stroke-width="6" stroke-linecap="round"/>
<path d="M274.958 378.606C315.669 331.498 334.9 312.494 392.862 286.65" stroke="#002BCF" stroke-width="6" stroke-linecap="round"/>
<path d="M331.037 420.629L326.87 423.716L303.475 409.678L307.641 406.591L331.037 420.629ZM345.507 409.908L341.34 412.995L317.944 398.957L322.111 395.87L345.507 409.908ZM352.547 404.692L348.493 407.695L333.488 387.441L337.541 384.438L343.548 392.545L351.641 386.549L345.634 378.442L349.688 375.439L364.694 395.692L360.64 398.696L354.644 390.603L346.551 396.599L352.547 404.692ZM382.638 382.398L368.754 392.684L353.748 372.43L367.632 362.144L370.635 366.197L360.805 373.481L363.808 377.534L370.461 372.605L373.464 376.659L366.812 381.588L369.804 385.627L379.635 378.344L382.638 382.398ZM399.947 369.574L385.766 380.08L370.76 359.826L374.814 356.823L386.816 373.023L396.943 365.52L399.947 369.574ZM416.535 357.283L402.354 367.79L387.348 347.536L391.402 344.533L403.405 360.733L413.532 353.23L416.535 357.283ZM430.641 331.278C431.352 332.238 431.912 333.26 432.321 334.343C432.732 335.41 433.001 336.501 433.128 337.617C433.248 338.724 433.225 339.835 433.059 340.95C432.893 342.064 432.595 343.139 432.165 344.172C431.727 345.196 431.152 346.162 430.439 347.069C429.733 347.986 428.9 348.801 427.939 349.512C426.979 350.224 425.957 350.784 424.874 351.192C423.808 351.603 422.716 351.872 421.6 351.999C420.486 352.11 419.372 352.082 418.257 351.916C417.142 351.751 416.068 351.453 415.035 351.022C414.004 350.576 413.033 350.004 412.123 349.307C411.216 348.594 410.406 347.757 409.695 346.797C408.983 345.836 408.418 344.818 408 343.742C407.592 342.659 407.328 341.564 407.208 340.457C407.097 339.344 407.124 338.229 407.29 337.115C407.456 336 407.758 334.931 408.195 333.907C408.642 332.876 409.217 331.91 409.921 331.009C410.627 330.092 411.46 329.278 412.421 328.566C413.381 327.855 414.403 327.295 415.486 326.886C416.561 326.468 417.653 326.199 418.76 326.079C419.867 325.959 420.978 325.982 422.092 326.148C423.207 326.314 424.276 326.615 425.3 327.053C426.324 327.49 427.29 328.065 428.198 328.778C429.115 329.484 429.929 330.318 430.641 331.278ZM426.615 334.26C425.959 333.375 425.173 332.668 424.255 332.137C423.33 331.597 422.362 331.257 421.353 331.115C420.346 330.956 419.322 331.001 418.28 331.248C417.247 331.488 416.288 331.936 415.403 332.592C414.508 333.254 413.796 334.045 413.266 334.963C412.735 335.881 412.394 336.848 412.243 337.864C412.085 338.871 412.129 339.896 412.376 340.938C412.616 341.97 413.064 342.929 413.72 343.814C414.376 344.7 415.163 345.407 416.081 345.938C416.992 346.459 417.955 346.795 418.972 346.946C419.988 347.097 421.013 347.053 422.045 346.813C423.078 346.573 424.041 346.121 424.936 345.459C425.821 344.803 426.529 344.016 427.059 343.098C427.599 342.173 427.94 341.206 428.082 340.196C428.233 339.18 428.192 338.16 427.959 337.137C427.719 336.104 427.271 335.146 426.615 334.26ZM381.589 432.699C382.21 433.537 382.636 434.447 382.867 435.428C383.1 436.393 383.145 437.359 383.001 438.326C382.86 439.276 382.536 440.187 382.029 441.059C381.525 441.914 380.853 442.651 380.015 443.272C379.262 443.83 378.439 444.236 377.547 444.488C376.665 444.734 375.757 444.808 374.825 444.712C374.646 445.632 374.306 446.482 373.805 447.261C373.303 448.041 372.676 448.71 371.922 449.268C371.084 449.889 370.178 450.32 369.204 450.56C368.233 450.784 367.267 450.829 366.307 450.695C365.349 450.544 364.438 450.22 363.574 449.722C362.712 449.209 361.97 448.533 361.349 447.695L350.634 433.232L354.687 430.229L365.403 444.692C365.612 444.974 365.863 445.204 366.155 445.381C366.44 445.55 366.741 445.661 367.06 445.717C367.381 445.757 367.702 445.737 368.024 445.66C368.345 445.582 368.647 445.438 368.93 445.229C369.212 445.02 369.437 444.773 369.605 444.488C369.774 444.203 369.881 443.904 369.927 443.593C369.976 443.265 369.961 442.94 369.884 442.619C369.799 442.288 369.652 441.981 369.442 441.699L358.727 427.236L362.781 424.232L373.496 438.695C373.705 438.978 373.956 439.208 374.248 439.385C374.533 439.553 374.835 439.665 375.153 439.721C375.474 439.761 375.795 439.741 376.117 439.664C376.438 439.586 376.74 439.442 377.023 439.233C377.305 439.024 377.53 438.776 377.698 438.492C377.867 438.207 377.974 437.908 378.02 437.597C378.069 437.269 378.054 436.944 377.977 436.623C377.901 436.285 377.759 435.975 377.55 435.692L366.834 421.229L370.874 418.236L381.589 432.699ZM402.203 410.842C402.914 411.802 403.474 412.824 403.883 413.907C404.294 414.973 404.563 416.065 404.69 417.181C404.81 418.288 404.787 419.399 404.621 420.514C404.455 421.628 404.157 422.702 403.727 423.736C403.29 424.76 402.714 425.726 402.001 426.633C401.295 427.55 400.462 428.364 399.501 429.076C398.541 429.788 397.519 430.348 396.436 430.756C395.37 431.167 394.278 431.436 393.162 431.563C392.048 431.674 390.934 431.646 389.819 431.48C388.704 431.314 387.63 431.016 386.597 430.586C385.566 430.139 384.595 429.568 383.685 428.871C382.778 428.158 381.968 427.321 381.257 426.361C380.545 425.4 379.98 424.382 379.562 423.306C379.154 422.223 378.89 421.128 378.77 420.021C378.659 418.907 378.687 417.793 378.852 416.678C379.018 415.564 379.32 414.494 379.757 413.47C380.204 412.439 380.779 411.474 381.483 410.573C382.189 409.656 383.022 408.842 383.983 408.13C384.943 407.419 385.965 406.858 387.048 406.45C388.124 406.032 389.215 405.763 390.322 405.643C391.429 405.523 392.54 405.546 393.654 405.712C394.769 405.878 395.838 406.179 396.862 406.616C397.886 407.054 398.852 407.629 399.76 408.342C400.677 409.048 401.491 409.881 402.203 410.842ZM398.177 413.824C397.522 412.939 396.735 412.231 395.817 411.701C394.892 411.161 393.924 410.82 392.915 410.679C391.908 410.52 390.884 410.565 389.842 410.812C388.809 411.052 387.85 411.5 386.965 412.155C386.07 412.818 385.358 413.609 384.828 414.527C384.297 415.445 383.956 416.412 383.805 417.428C383.647 418.435 383.691 419.459 383.938 420.502C384.178 421.534 384.626 422.493 385.282 423.378C385.938 424.263 386.725 424.971 387.643 425.501C388.554 426.022 389.517 426.359 390.534 426.51C391.55 426.661 392.575 426.617 393.607 426.377C394.64 426.137 395.604 425.685 396.498 425.022C397.383 424.367 398.091 423.58 398.621 422.662C399.161 421.737 399.502 420.77 399.644 419.76C399.795 418.744 399.754 417.724 399.521 416.701C399.281 415.668 398.833 414.709 398.177 413.824ZM404.652 399.488L410.659 407.596L414.713 404.592C415.268 404.181 415.714 403.69 416.05 403.12C416.379 402.541 416.591 401.931 416.687 401.292C416.782 400.653 416.752 400.012 416.596 399.368C416.443 398.709 416.16 398.101 415.749 397.546C415.337 396.99 414.842 396.548 414.262 396.219C413.685 395.873 413.077 395.653 412.438 395.558C411.799 395.463 411.158 395.493 410.514 395.648C409.864 395.795 409.262 396.074 408.706 396.485L404.652 399.488ZM416.655 415.689L412.602 418.692L397.596 398.438L405.703 392.432C406.447 391.88 407.235 391.449 408.069 391.138C408.896 390.817 409.739 390.615 410.597 390.534C411.458 390.436 412.318 390.455 413.177 390.591C414.039 390.711 414.867 390.943 415.662 391.288C416.467 391.625 417.218 392.068 417.915 392.616C418.622 393.156 419.251 393.799 419.802 394.543C420.319 395.239 420.731 395.984 421.041 396.775C421.36 397.56 421.574 398.371 421.684 399.208C421.803 400.039 421.813 400.878 421.711 401.726C421.61 402.574 421.404 403.397 421.092 404.197L427.262 407.83L422.954 411.022L418.165 408.248L413.652 411.635L416.655 415.689ZM445.941 393.991L431.76 404.497L416.754 384.243L420.808 381.24L432.811 397.44L442.938 389.937L445.941 393.991ZM457.074 370.056C457.765 370.989 458.309 371.979 458.706 373.026C459.105 374.057 459.363 375.114 459.478 376.195C459.587 377.267 459.565 378.34 459.414 379.415C459.255 380.48 458.963 381.513 458.538 382.514C458.112 383.515 457.557 384.458 456.872 385.345C456.19 386.215 455.382 386.996 454.45 387.686L448.349 392.207L433.343 371.953L439.444 367.433C440.377 366.742 441.362 366.202 442.4 365.812C443.441 365.405 444.502 365.144 445.583 365.029C446.664 364.913 447.741 364.939 448.813 365.107C449.879 365.266 450.912 365.558 451.912 365.983C452.906 366.399 453.842 366.953 454.719 367.645C455.598 368.32 456.384 369.124 457.074 370.056ZM453.021 373.06C452.4 372.222 451.657 371.554 450.793 371.057C449.938 370.553 449.03 370.233 448.07 370.099C447.113 369.948 446.143 369.988 445.162 370.219C444.19 370.443 443.286 370.865 442.448 371.486L440.428 372.983L449.427 385.129L451.447 383.633C452.285 383.012 452.956 382.274 453.46 381.419C453.967 380.548 454.291 379.637 454.433 378.686C454.577 377.719 454.532 376.753 454.298 375.788C454.067 374.807 453.642 373.898 453.021 373.06Z" fill="#F54925"/>
<rect x="545.656" y="496.518" width="123.51" height="123.51" rx="20" fill="#181818"/>
<rect x="545.656" y="496.518" width="114.293" height="114.293" rx="20" fill="white"/>
<path d="M612.336 528.781L598.861 561.722L605.053 526.669L590.016 522.312C589.525 522.171 589.009 522.15 588.509 522.251C588.009 522.352 587.54 522.571 587.142 522.89C586.744 523.209 586.428 523.619 586.221 524.085C586.014 524.552 585.922 525.061 585.952 525.57L589.083 584.519C589.123 585.176 589.365 585.805 589.776 586.319C590.186 586.833 590.746 587.207 591.378 587.39C592.01 587.574 592.683 587.558 593.306 587.344C593.929 587.13 594.47 586.729 594.856 586.195L629.119 538.041C629.415 537.629 629.609 537.152 629.683 536.651C629.758 536.149 629.711 535.637 629.547 535.157C629.383 534.677 629.106 534.243 628.74 533.893C628.374 533.542 627.929 533.284 627.442 533.141L612.336 528.781Z" fill="#F54925" stroke="#F54925" stroke-width="3" stroke-linecap="round" stroke-linejoin="round"/>
</svg>
