<svg width="648" height="244" viewBox="0 0 648 244" fill="none" xmlns="http://www.w3.org/2000/svg">
<path d="M53.307 205.214C50.6993 192.713 68.2377 184.919 75.2364 179.257C86.9932 169.746 57.9832 187.372 38.8428 170.288C15.0469 149.049 99.7064 128.092 91.1004 125.922C53.307 116.391 19.5 111.891 28.0001 82.8902C39.552 43.4778 121.947 73.3854 155.539 88.0858C118.198 63.9274 103.611 0.000273691 140.58 0C198.5 -0.000428795 220 82.8902 220 63.3906C220 31.3939 222.004 5.59434 249.5 9.89062C281.5 14.8906 282.799 95.1879 301 82.8902C338 57.8906 350.989 66.8906 359 82.8902C367.011 98.8899 337.102 136.923 350.989 154.712C357.988 163.677 384.117 150.936 390.183 188.222C392.226 200.783 372.452 226.927 372.452 226.927H75.2364C75.2364 226.927 55.1813 214.199 53.307 205.214Z" fill="#F54925"/>
<path d="M45.3317 221.217C45.4802 220.284 46.7308 216.087 49.0628 213.288C51.3948 210.49 55.005 212.653 56.9916 214.221C60.1384 216.705 53.5094 218.297 53.0149 222.255C52.572 225.799 57.6533 230.891 54.6599 232.877C52.8741 234.062 51.9634 233.266 49.9956 232.411C46.2603 230.787 44.6953 225.212 45.3317 221.217Z" fill="white" stroke="#F54925" stroke-width="3"/>
<path d="M52.1898 224.061C52.9399 219.307 55.8846 216.416 59.4786 213.214C61.4384 211.468 64.9862 210.336 67.5811 212.401C71.6912 215.673 62.0843 219.76 61.4384 224.973C60.8599 229.641 67.9613 234.116 64.0514 236.732C61.7189 238.292 59.4358 237.858 56.8656 236.732C51.9867 234.593 51.3596 229.323 52.1898 224.061Z" fill="white" stroke="#F54925" stroke-width="3"/>
<path d="M59.9393 225.599C60.6894 220.844 65.0453 215.734 69.4705 213.84C72.5194 212.536 73.6575 215.201 73.6575 215.855C73.6575 221.108 72.0762 220.386 71.4302 225.599C70.8518 230.267 71.6881 233.49 67.7782 236.105C65.4457 237.665 65.1652 237.358 64.5119 237.358C59.185 237.358 59.1091 230.861 59.9393 225.599Z" fill="white" stroke="#F54925" stroke-width="3"/>
<path d="M80.1903 223.693C79.5527 219.274 81.4966 223.498 82.8031 222.387C84.1097 221.276 83.8129 213.895 77.9336 214.548C72.0544 215.201 68.4314 220.274 68.4314 225.653C68.4314 230.02 68.0369 238.194 71.6977 239.372C73.0042 239.792 75.3668 240.293 77.9336 237.412C80.8432 234.146 80.8958 228.584 80.1903 223.693Z" fill="white" stroke="#F54925" stroke-width="3"/>
<path d="M388.932 223.129C388.774 222.222 386.736 218.854 384.267 216.133C381.799 213.412 377.05 214.511 377.927 216.956C379.137 220.33 381.613 220.919 382.137 224.767C382.606 228.213 377.226 233.163 380.395 235.094C382.286 236.246 383.25 235.472 385.333 234.641C389.288 233.062 389.605 227.013 388.932 223.129Z" fill="white" stroke="#F54925" stroke-width="3"/>
<path d="M383.645 226.548C381.469 221.263 378.671 218.931 374.007 216.386C372.378 215.497 370.272 213.905 367.944 216.386C364.679 219.864 371.896 222.75 372.579 227.818C373.192 232.357 365.674 236.707 369.813 239.25C372.282 240.767 374.699 240.345 377.421 239.25C382.586 237.171 385.621 231.347 383.645 226.548Z" fill="white" stroke="#F54925" stroke-width="3"/>
<path d="M374.167 228.427C373.372 223.804 368.761 218.836 364.076 216.995C360.848 215.726 359.643 218.318 359.643 218.953C359.643 224.06 361.317 223.359 362.001 228.427C362.613 232.966 361.728 236.099 365.868 238.641C368.337 240.158 368.634 239.859 369.325 239.859C374.965 239.859 375.045 233.543 374.167 228.427Z" fill="white" stroke="#F54925" stroke-width="3"/>
<path d="M352.726 226.574C353.401 222.278 351.344 226.384 349.96 225.304C348.577 224.224 348.891 217.048 355.116 217.683C361.34 218.318 365.176 223.25 365.176 228.48C365.176 232.725 364.357 241.106 360.481 242.251C359.098 242.66 356.75 242.251 355.116 239.912C352.582 236.285 351.98 231.329 352.726 226.574Z" fill="white" stroke="#F54925" stroke-width="3"/>
<path d="M180.624 166.023C180.624 166.023 183.682 174.14 181.1 178.082C177.909 182.955 166.458 180.915 166.458 180.915" stroke="white" stroke-width="4" stroke-linecap="round"/>
<path d="M179.984 179.287C179.984 179.287 202.371 204.473 229.889 204.473C257.406 204.473 288.655 176.022 288.655 176.022" stroke="white" stroke-width="4" stroke-linecap="round"/>
<path d="M210.5 147.891C210.5 147.891 215.5 151.39 222 153.891C226.767 155.724 203.911 150.128 208.349 152.716C214.349 156.216 223.5 153.89 222 154.89C219.672 156.442 212.349 159.716 212.349 159.716" stroke="white" stroke-width="3" stroke-linecap="round"/>
<path d="M243.163 147.63C243.163 147.63 234.294 152.469 236.05 153.77C237.376 154.752 251.842 150.855 246.724 150.746C240.736 150.618 234.05 153.87 235.527 154.157C243.163 155.643 244.498 157.868 244.498 157.868" stroke="white" stroke-width="3" stroke-linecap="round"/>
<path d="M234 143.92C238.817 140.438 243.863 141.743 247.992 137.39" stroke="white" stroke-width="4" stroke-linecap="round"/>
<path d="M199 134.59C199 134.59 207.154 138.256 212 140.459C217.5 142.959 224 145.459 224 145.459" stroke="white" stroke-width="4" stroke-linecap="round"/>
<path d="M155.632 55.885L167.068 79.1722C167.829 80.7221 169.118 81.8997 170.693 82.4088C172.277 82.9205 174.029 82.7121 175.545 81.7591C177.06 80.8061 178.142 79.2321 178.594 77.4402C179.044 75.6576 178.841 73.7976 178.08 72.2477L159.091 33.5827L156.551 35.1798L159.076 33.552C157.733 30.8955 155.789 28.6787 153.428 27.1325C151.067 25.5857 148.363 24.7592 145.584 24.765L145.493 24.7652L145.403 24.7716L117.872 26.7272C114.247 26.6282 110.644 27.6092 107.433 29.5881C104.214 31.572 101.525 34.4749 99.631 37.9873L83.4409 63.7377L83.4249 63.763L83.4094 63.7887C83.3413 63.9015 83.2382 64.0745 83.1348 64.2727C81.7118 66.9416 80.9579 69.9654 80.9255 73.0247C80.8931 76.0902 81.5856 79.0937 82.9215 81.7323C84.2574 84.371 86.1974 86.5673 88.5526 88.0874C90.9087 89.6081 93.6049 90.4025 96.3688 90.3592L96.4417 90.3581L96.5147 90.3529L124.064 88.3878C127.767 88.4795 131.445 87.4525 134.708 85.396C137.857 83.4453 140.475 80.5816 142.296 77.121L155.632 55.885ZM136.007 86.3051L135.354 86.7175C132.044 88.8098 128.295 89.8825 124.475 89.8125L124.36 89.8104L124.244 89.8185L107.818 90.9711L103.146 91.2989L105.304 95.6925L109.754 104.755L109.755 104.756C111.779 108.871 114.918 112.163 118.738 114.139C122.56 116.116 126.877 116.676 131.062 115.689L131.095 115.682L131.128 115.673C136.415 114.287 141.498 112.036 146.216 108.989C150.992 106.059 155.364 102.359 159.193 98.0056L159.216 97.9796L159.238 97.9531C162.189 94.453 164.048 90.0085 164.582 85.2917C165.117 80.578 164.304 75.8224 162.285 71.7051L162.284 71.7037L157.848 62.6718L155.69 58.2766L152.977 62.5951L143.263 78.0611L143.197 78.1651L143.139 78.2739C141.373 81.5915 138.92 84.3444 136.007 86.3051Z" fill="white" stroke="#F54925" stroke-width="6"/>
<path d="M54.0001 37.8664C51.6001 37.8664 34.5 27.3662 18.5001 42.8666C2.50024 58.3669 0 83.8665 0 83.8665" stroke="#002BCF" stroke-width="6" stroke-linecap="round"/>
<path d="M644.324 197.891C619.324 167.891 584.5 206.391 565.824 193.391C556.049 186.586 514.824 235.391 514.824 162.391C514.824 143.391 463 222.651 422.824 206.391C398.5 196.546 416.5 148.391 416.5 148.391" stroke="#002BCF" stroke-width="6" stroke-linecap="round"/>
</svg>
