<svg width="394" height="475" viewBox="0 0 394 475" fill="none" xmlns="http://www.w3.org/2000/svg">
<path d="M149.583 244.998C156.711 247.752 151.886 250.752 146.289 255.807C137.067 264.137 79.5446 224.597 70.5884 219.148C51.2893 207.406 58.9534 147.327 55.9442 139.64C54.2393 135.284 52.6138 137.973 49.094 125.345C43.2982 104.552 49.4005 97.5697 53.137 96.1439C56.8735 94.7181 56.3131 107.346 58.9534 113.426C61.5938 119.506 65.4473 93.8246 70.5885 92.87C80.6647 90.9993 69.3301 113.449 70.5885 113.449C71.8468 113.449 83.6611 100.117 88.2151 104.072C93.1333 108.344 83.3992 116.067 80.2653 121.867C78.3945 125.329 93.0412 118.523 93.3608 123.55C93.8134 130.668 74.9076 140.062 74.9076 140.062C74.9076 140.062 71.1881 187.548 80.2653 202.311C86.6385 212.676 142.455 242.243 149.583 244.998Z" fill="#BFCDFF" stroke="#002BCF" stroke-width="4" stroke-linecap="round"/>
<path d="M72.9476 136.102C72.9476 136.102 72.4799 138.471 72.4799 139.376C72.4799 140.755 74.8184 145.456 74.8184 145.456" stroke="#002BCF" stroke-width="3" stroke-linecap="round"/>
<path d="M93.1818 133.398C95.7702 163.721 152.823 238.674 110.816 190.937C78.2765 153.959 36.122 190.937 30.2058 224.957C23.3754 264.235 41.9606 283.029 64 286C117.145 293.163 123 284.5 139.289 292.036C152.535 298.164 93.2219 288.437 90.2236 320.14C88.0153 343.489 81.5334 350.547 102 362C141.757 384.248 165.942 334.5 211.5 334.5C225 334.5 229.689 330.072 285.096 360.5C311.5 375 327.5 346.5 327.5 336.5C327.5 317.939 298 307.825 301 302C304 296.175 317.346 298.357 330.949 304C343 309 360.045 309.049 362.5 291.5C365.5 270.059 315 262.5 315 257.5C315 252.5 348.5 275.813 371.139 268.962C391.872 262.688 392.063 231.665 381.238 212.902C362.476 180.38 337.12 203.88 285.096 212.902C263.754 216.603 325.772 179.327 330.949 162.464C335.629 147.218 316.412 128.905 292.492 133.398C264.283 138.696 241.412 154.068 231.848 168.528C212.135 198.333 249.851 126.595 231.848 103.298C221.87 90.3863 200.197 95.1563 193.645 110.102C181.812 137.096 186.618 146.118 177.745 168.528C168.871 190.937 171.205 121.935 130.159 110.102C113.425 105.277 91.2407 110.659 93.1818 133.398Z" fill="#002BCF"/>
<path d="M165.339 385.863C157.843 381.267 169.548 326.832 173.289 323.579C180.305 317.479 187.32 323.579 187.32 323.579C187.32 338.145 169.08 383.444 205.547 360.059C227.129 346.22 239.234 337.281 239.234 349.77C239.234 363.333 222.398 416.183 222.398 416.183C222.398 416.183 197.129 424.601 197.129 405.893C197.129 396.338 206.564 388.857 213.621 385.068C212.577 384.181 211.871 382.821 212.563 381.186C213.518 378.929 219.24 374.139 214.901 377.445C205.08 384.928 206.015 374.639 197.129 381.186C188.243 387.734 172.835 390.459 165.339 385.863Z" fill="#BFCDFF" stroke="#002BCF" stroke-width="4" stroke-linecap="round"/>
<path d="M182.644 360.995C182.644 365.671 183.22 370.348 189.659 370.816" stroke="#002BCF" stroke-width="3" stroke-linecap="round"/>
<path d="M199.949 392.798C188.547 386.385 213.077 320.143 218.177 315.709C228.934 306.355 237.352 317.112 237.352 317.112C237.352 331.678 207.887 391.943 234.546 363.414C252.05 344.681 267.195 340.785 274.781 350.705C280.861 358.656 262.621 419.924 262.621 419.924C262.621 419.924 237.352 432.084 237.352 406.829C237.352 398.058 241.958 390.756 245.683 386.479C245.165 386.444 244.637 386.183 243.9 385.863C242.317 385.177 240.606 383.444 241.561 381.186C242.517 378.928 247.187 374.558 243.9 377.445C234.623 385.593 236.884 382.589 227.998 389.137C219.112 395.685 207.433 397.007 199.949 392.798Z" fill="#BFCDFF" stroke="#002BCF" stroke-width="4" stroke-linecap="round"/>
<path d="M224.739 360.527C222.4 367.075 218.658 373.155 225.674 377.364" stroke="#002BCF" stroke-width="3" stroke-linecap="round"/>
<path d="M253.808 225.032C246.68 227.786 251.505 230.786 257.101 235.841C266.323 244.17 310.241 218.662 319.197 213.213C338.496 201.47 346.467 128.921 349.597 122.48C353.461 114.529 355.225 118.585 358.232 107.513C365.229 81.751 347.274 73.3613 342.597 74.3069C337.92 75.2525 349.783 88.3379 346.509 92.0794C343.235 95.821 342.582 67.2915 330.34 67.2915C323.406 67.2915 332.493 79.4516 332.493 88.8055C332.493 98.1595 318.247 64.4853 311.246 70.5654C304.246 76.6454 319.197 99.0949 319.197 101.433C319.197 103.772 301.892 89.7606 301.892 101.433C301.892 108.449 332.493 118.585 332.493 118.585C332.493 118.585 320.324 180.678 311.246 195.44C304.873 205.805 260.936 222.277 253.808 225.032Z" fill="#BFCDFF" stroke="#002BCF" stroke-width="4" stroke-linecap="round"/>
<path d="M331.84 113.583C331.84 113.583 333.71 117.657 333.71 119.015C333.71 121.083 330.437 128.55 330.437 128.55" stroke="#002BCF" stroke-width="3" stroke-linecap="round"/>
<path d="M171.419 222.552L183.131 213.937L195.233 222.552" stroke="#BFCDFF" stroke-width="5" stroke-linecap="round"/>
<path d="M204.566 222.189L216.474 214.434L228.011 225.363" stroke="#BFCDFF" stroke-width="5" stroke-linecap="round"/>
<path d="M233.624 244.538C233.624 244.538 234.109 248.521 237.062 249.188C240.64 249.997 242.978 246.877 242.978 246.877" stroke="#BFCDFF" stroke-width="5" stroke-linecap="round"/>
<path d="M164.828 254.504C164.828 254.504 171.42 274.94 202.289 272.132C241.575 268.558 236.949 250.752 236.949 250.752" stroke="#BFCDFF" stroke-width="5" stroke-linecap="round"/>
<path d="M2 24C2 24 36 24 79.5 24C151.95 24 -23.5 54 47.5 61C118.5 68 100.081 37.7041 129 55.5C155 71.4995 165.837 33.5034 185.5 51.4999C215 78.4996 235 101 262.5 89.4999" stroke="#CE654E" stroke-width="4" stroke-linecap="round"/>
<path d="M284.5 428.5C284.5 423.7 290.5 398.194 309.5 389C328.5 379.806 336.795 385.006 342.5 389C347.5 392.5 346.695 402.608 344.5 412C341.838 423.391 329.963 433.731 319.5 428.5C306.5 422 317 408 327 406" stroke="#CE654E" stroke-width="4" stroke-linecap="round"/>
<path d="M291.299 43.5969L280.69 73.3489C280.445 74.0338 279.913 74.5844 279.209 74.8795C278.506 75.1746 277.689 75.19 276.938 74.9223C276.188 74.6546 275.565 74.1258 275.207 73.4522C274.849 72.7786 274.785 72.0154 275.029 71.3304L282.625 50.0288L258.425 51.6927C255.792 52.0947 253.05 51.8152 250.492 50.8843C247.802 49.9291 245.396 48.3282 243.531 46.2507L225.879 29.7298C224.524 28.3386 223.574 26.6562 223.126 24.8569C222.678 23.0577 222.748 21.2073 223.331 19.4977C223.913 17.788 224.985 16.2815 226.437 15.1344C227.889 13.9873 229.667 13.2414 231.586 12.9741C231.677 12.96 231.773 12.9505 231.865 12.9426L256.247 11.2795C258.951 10.8979 261.758 11.2014 264.378 12.1587C266.998 13.1161 269.337 14.6927 271.155 16.7264L288.793 33.2424C290.143 34.6612 291.087 36.3667 291.527 38.1854C291.967 40.0041 291.888 41.8711 291.299 43.5969ZM248.649 56.0434C245.026 54.7594 241.775 52.6244 239.228 49.8544L228.764 40.0418L226.277 47.0149C225.296 49.7726 225.306 52.8019 226.306 55.6607C227.306 58.5195 229.244 61.0582 231.837 62.9063C235.574 65.456 239.659 67.5042 243.964 68.986C248.237 70.5591 252.698 71.5545 257.205 71.9407C260.382 72.1501 263.489 71.4103 266.072 69.8292C268.656 68.2482 270.58 65.9088 271.565 63.1524L274.043 56.2025L259.462 57.2033C255.866 57.7112 252.135 57.3128 248.647 56.0485L248.649 56.0434Z" fill="#002BCF"/>
<ellipse cx="221.5" cy="467" rx="89.5" ry="8" fill="#BFCDFF"/>
</svg>
