<svg width="81" height="80" viewBox="0 0 81 80" fill="none" xmlns="http://www.w3.org/2000/svg">
<path d="M67.9028 19.375H57.2778L54.7466 12.2813C54.5717 11.7958 54.2512 11.3763 53.8289 11.0798C53.4067 10.7834 52.9032 10.6245 52.3872 10.625H28.4185C27.3638 10.625 26.4185 11.2891 26.0669 12.2813L23.5278 19.375H12.9028C9.44971 19.375 6.65283 22.1719 6.65283 25.625V61.25C6.65283 64.7031 9.44971 67.5 12.9028 67.5H67.9028C71.356 67.5 74.1528 64.7031 74.1528 61.25V25.625C74.1528 22.1719 71.356 19.375 67.9028 19.375ZM68.5278 61.25C68.5278 61.5938 68.2466 61.875 67.9028 61.875H12.9028C12.5591 61.875 12.2778 61.5938 12.2778 61.25V25.625C12.2778 25.2813 12.5591 25 12.9028 25H27.4888L30.6138 16.25H50.1841L53.3091 25H67.9028C68.2466 25 68.5278 25.2813 68.5278 25.625V61.25ZM40.4028 30C33.4966 30 27.9028 35.5938 27.9028 42.5C27.9028 49.4062 33.4966 55 40.4028 55C47.3091 55 52.9028 49.4062 52.9028 42.5C52.9028 35.5938 47.3091 30 40.4028 30ZM40.4028 50C36.2622 50 32.9028 46.6406 32.9028 42.5C32.9028 38.3594 36.2622 35 40.4028 35C44.5435 35 47.9028 38.3594 47.9028 42.5C47.9028 46.6406 44.5435 50 40.4028 50Z" fill="#F54925"/>
</svg>
